<svg xmlns="http://www.w3.org/2000/svg" viewBox="0 0 100 125" xml:space="preserve"><path fill="none" stroke="#fb3a4f" stroke-width="2" stroke-linecap="round" stroke-miterlimit="10" d="M52 32h7c.55 0 1.148.425 1.331.944L68.75 57M35 39h5"/><path fill="#ffab3a" d="M74.118 45.387c-1.448-.621-3.696-.929-3.696-.929-.545-.075-.842.289-.66.808l.811 2.316c.182.519.76 1.077 1.286 1.24 0 0 .89.276 1.707.754 2.773 1.623 4.642 4.63 4.642 8.07 0 5.158-4.196 9.354-9.354 9.354S59.5 62.804 59.5 57.646c0-1.521.368-2.954 1.017-4.221.336-.658.62-1.031.62-1.031.333-.438.456-1.222.274-1.741l-.797-2.277c-.182-.519-.656-.632-1.053-.252 0 0-1.015.972-1.7 1.961a13.225 13.225 0 0 0-2.36 7.561C55.5 65.021 61.479 71 68.854 71s13.354-5.979 13.354-13.354c-.001-5.503-3.333-10.22-8.09-12.259z"/><path fill="none" stroke="#fb3a4f" stroke-width="2" stroke-linecap="round" stroke-miterlimit="10" d="M61.833 38 45 54.666M38.414 39.864 45.5 59.5"/><path fill="#ffab3a" d="M41.634 62.58c-.184-.518-.575-.562-.869-.097 0 0-1.079 1.705-2.269 2.611A9.264 9.264 0 0 1 32.854 67c-5.158 0-9.354-4.196-9.354-9.354 0-4.996 3.937-9.089 8.872-9.341a9.66 9.66 0 0 1 .482-.012c1.451 0 3.107.596 3.107.596.518.187.791-.085.607-.604l-1.001-2.826c-.184-.518-.779-1.006-1.324-1.084 0 0-.576-.082-1.389-.082-.528 0-1.049.03-1.561.09-6.64.773-11.793 6.417-11.793 13.263C19.5 65.021 25.479 71 32.854 71c2.748 0 5.299-.833 7.419-2.258 1.003-.674 1.995-1.682 1.995-1.682.386-.392.551-1.137.368-1.655l-1.002-2.825z"/></svg>
